<?xml version="1.0" encoding="utf-8"?>
<!-- Generator: Adobe Illustrator 16.0.0, SVG Export Plug-In . SVG Version: 6.00 Build 0)  -->
<!DOCTYPE svg PUBLIC "-//W3C//DTD SVG 1.1//EN" "http://www.w3.org/Graphics/SVG/1.1/DTD/svg11.dtd">
<svg version="1.1" id="Layer_1" xmlns="http://www.w3.org/2000/svg" xmlns:xlink="http://www.w3.org/1999/xlink" x="0px" y="0px"
	 width="100%" height="auto" viewBox="0 0 794.81 517.856" enable-background="new 0 0 794.81 517.856"
	 xml:space="preserve">
<g>
	<g>
		
			<line fill="none" stroke="#000000" stroke-width="0.9949" stroke-miterlimit="10" x1="640.048" y1="250.909" x2="640.048" y2="373.744"/>
		<g>
			<polygon points="635.088,252.36 640.048,243.77 645.008,252.36 			"/>
		</g>
		<g>
			<polygon points="635.088,372.293 640.048,380.883 645.008,372.293 			"/>
		</g>
	</g>
</g>
<path fill="none" stroke="#000000" stroke-width="0.2835" stroke-miterlimit="10" d="M344.81,336.311
	c12.499-3.16,23.084-6.076,34.8-11.029c6.729-2.844,14.015-3.912,21.722-3.285c9.575,0.779,17.101,6.033,26.45,7.795
	c9.422,1.775,15.771-1.145,24.171-4.951c5.843-2.648,9.722-5.225,16.104-6.387c5.873-1.066,11.564-1.191,17.616-1.191
	c11.814,0,22.951,1.926,34.626,1.889c1.312,8.188,18.302-2.473,23.32-1.889"/>
<path fill="none" stroke="#000000" stroke-width="0.2835" stroke-miterlimit="10" d="M345.405,341.072
	c11.879,0,25.123,1.094,36.222-2.947c6.697-2.438,8.637-5.951,16.617-5.98c6.532-0.025,8.27,1.379,10.363,7.646
	c11.242-0.232,27.118,4.656,36.009-1.682c5.913-4.217,7.851-6.828,15.48-7.156c3.45-0.148,5.885-0.021,8.594-1.016
	c3.682-1.35,6.027-4.523,9.63-5.525c11.567-3.223,22.705,4.209,33.84,5.338c8.197,0.83,10.013-2.672,17.146-4.762
	c3.404-0.998,14.063-2.234,15.608,1.1c2.111,0.123,4.295,0.082,6.444,0.104"/>
<path fill="none" stroke="#000000" stroke-width="0.2835" stroke-miterlimit="10" d="M359.69,325.002
	c5.907-2.949,13.991-2.307,20.252-4.775c5.764-2.273,10.509-3.848,16.757-4.156c14.225-0.701,25.46,5.227,39.063,6.52
	c6.035,0.572,9.678,1.186,14.969-1.904c5.565-3.252,8.245-6.041,14.913-6.432c5.63-0.328,13.202,0.229,18.406-1.799
	c6.832-2.662,8.384-6.4,15.389-2.77c6.294,3.264,9.819,4.609,17.394,4.6c2.816-0.004,6.162,0.521,8.929,0
	c3.691-0.695,6.606-3.006,10.715-2.383"/>
<path fill="none" stroke="#000000" stroke-width="0.2835" stroke-miterlimit="10" d="M373.976,311.902
	c16.256-0.041,31.381-6.822,48.344-3.471c8.259,1.631,17.603,6.225,26.388,5.121c2.549-0.32,4.816-2.256,7.411-2.723
	c3.533-0.633,7.25,0.191,10.728-0.566c5.044-1.1,10.627-3.063,15.401-4.268c2.864-0.725,7.255-3.779,9.55-4.105
	c3.609-0.512,4.321,1.396,7.163,2.287c10.37,3.246,20.808,3.559,32.158,3.559"/>
<path fill="none" stroke="#000000" stroke-width="0.2835" stroke-miterlimit="10" d="M387.667,302.975
	c6.421-0.711,13.429,1.486,20.236,1.191c5.084-0.221,10.041-0.596,15.199-0.596c6.409,0,13.406,0.844,19.774-0.002
	c6.56-0.873,9.889-2.99,16.507-0.906c7.818,2.459,7.067,1.863,14-1.637c3.643-1.838,8.291-2.816,11.903-3.377
	c7.273-1.129,22.049,0.092,26.885,5.818c5.109,1.066,10.627,0.699,15.972,0.699"/>
<path fill="none" stroke="#000000" stroke-width="0.2835" stroke-miterlimit="10" d="M402.548,294.047
	c10.904,0,18.901,2.695,29.211,0.031c6.13-1.584,6.223-1.033,11.251,0.561c3.862,1.223,8.202,1.811,12.514,0.598"/>
<path fill="none" stroke="#000000" stroke-width="0.2835" stroke-miterlimit="10" d="M415.644,285.119
	c3.501-0.479,6.381,1.607,9.997,1.785c3.011,0.148,5.598-0.971,8.455,0"/>
<path fill="none" stroke="#000000" stroke-width="0.2835" stroke-miterlimit="10" d="M501.952,291.666
	c5.621-0.258,5.961,2.203,10.121,4.031c3.789,1.666,9.19,0.01,12.498,2.516"/>
<path fill="none" stroke="#000000" stroke-width="0.2835" stroke-miterlimit="10" d="M354.333,351.191
	c9.35,4.271,22.836-1.443,31.547-5.227c2.073-0.9,5.484-2.969,7.708-3.123c5.25-0.365,2.304,0.391,5.676,3.006
	c4.923,3.82,8.799,3.541,15.128,3.559c10.627,0.027,23.464-0.492,32.933-4.879c7.369-3.414,8.04-4.361,16.532-3.602
	c7.993,0.717,8.39-5.326,15.487-7.488c5.373-1.635,13.233,2.438,18.41,3.424c7.331,1.396,12.933-0.105,20.253-1.594
	c12.623-2.568,23.758,1.043,36.325,1.043"/>
<path fill="none" stroke="#000000" stroke-width="0.2835" stroke-miterlimit="10" d="M358.5,358.93
	c5.127,0.059,13.426,0.641,18.435-0.551c6.463-1.537,8.42-6.914,15.465-5.084c5.874,1.525,8.282,4.385,14.91,4.445
	c5.36,0.047,10.723,0,16.083,0c5.78,0,11.212,0.178,16.669-1.205c5.644-1.43,10.837-3.654,16.756-5.344
	c5.707-1.627,13.308-0.947,18.858-3.262c2.533-1.057,3.906-3.313,6.638-3.879c4.362-0.904,6.066,1.895,9.191,2.738
	c5.358,1.445,9.852-0.982,14.731-2.125c5.26-1.234,10.632-0.072,15.968-0.617c8.221-0.84,16.877-1.188,25.582-1.188"/>
<path fill="none" stroke="#000000" stroke-width="0.2835" stroke-miterlimit="10" d="M361.476,364.883
	c7.794,0,11.105,0.594,17.827-2.381c5.816-2.574,10.738-4.77,17.408-3.008c5.923,1.564,10.364,4.463,16.728,5.402
	c4.585,0.676,10.199,0.395,14.704,0.613c5.895,0.285,12.429,0.383,17.758-1.223c5.2-1.566,10.145-5.455,15.606-6.592
	c5.295-1.104,11.396,1.273,16.667-0.076c4.835-1.238,6.65-4.049,12.367-2.158c3.749,6.781,19.457,0.254,25.576-0.1
	c9.187-0.529,16.791,1.188,25.716,1.188"/>
<path fill="none" stroke="#000000" stroke-width="0.2835" stroke-miterlimit="10" d="M363.262,372.621
	c3.229-0.701,7.676-0.844,10.728-1.775c3.012-0.918,5.275-3.361,8.33-4.186c4.095-1.102,10.624-0.846,14.873-0.588
	c5.135,0.314,11.153,2.025,15.92,4.154c4.714,2.105,7.651,2.758,13.245,3.582c11.661,1.719,20.182-1.383,31.517-4.777
	c4.937-1.48,26.154-11.287,29.301-4.848c8.207,1.313,17.393-3.645,25.494-4.063c8.262-0.428,15.636,4.414,24.402,1.785"/>
<path fill="none" stroke="#000000" stroke-width="0.2835" stroke-miterlimit="10" d="M367.429,375.598
	c4.324,0.049,7.617,1.25,11.471,1.783c4.34,0.6,4.112-0.438,8.026-1.828c6.521-2.318,13.73-2.203,20.386-0.564
	c10.766,2.648,21.925,1.814,32.736,2.332c2.702,0.131,4.758,2.094,7.769,1.133c3.267-1.045,3.363-3.607,7.112-4.047
	c4.903-0.576,10.351,2.35,16.069,0.623c9.767-2.945,22.77-7.943,33.335-7.201c4.995,0.352,9.436,3.332,14.881,3.602
	c5.479,0.271,11.384-0.844,16.667,0.596"/>
<path fill="none" stroke="#000000" stroke-width="0.2835" stroke-miterlimit="10" d="M469.214,379.168
	c3.401,2.012,13.824-4.285,18.349-4.789c6.024-0.674,11.687,1.219,17.961,1.219c2.681,0,5.539-0.283,8.201,0
	c3.155,0.336,4.641,1.723,7.25,2.395c4.658,1.197,13.1,1.777,16.692-1.205"/>
<rect x="650.762" y="285.713" fill="none" width="97.024" height="47.342"/>
<text transform="matrix(1 0 0 1 664.5859 302.8984)"><tspan x="0" y="0" font-family="'ArialMT'" font-size="24">Height</tspan><tspan x="-8.66" y="28.8" font-family="'ArialMT'" font-size="24">48.4mm</tspan></text>
<rect x="399.99" y="425.002" fill="none" width="97.024" height="47.34"/>
<text transform="matrix(1 0 0 1 411.7988 442.1836)"><tspan x="0" y="0" font-family="'ArialMT'" font-size="24">Length</tspan><tspan x="-3.311" y="28.801" font-family="'ArialMT'" font-size="24">120mm</tspan></text>
<rect x="56.714" y="78.943" fill="none" width="565.476" height="214.188"/>
<text transform="matrix(1 0 0 1 56.7144 100.4224)"><tspan x="0" y="0" font-family="'ArialMT'" font-size="30" letter-spacing="-1">T</tspan><tspan x="17.212" y="0" font-family="'ArialMT'" font-size="30">imber</tspan><tspan x="92.227" y="0" font-family="'ArialMT'" font-size="30"> </tspan><tspan x="100.02" y="0" font-family="'ArialMT'" font-size="30" letter-spacing="-1">T</tspan><tspan x="117.231" y="0" font-family="'ArialMT'" font-size="30">ilting Fillet (unplaned for roofing)</tspan><tspan x="0" y="43.2" font-family="'ArialMT'" font-size="24">Depth 50mm or 2” (either will do)</tspan><tspan x="0" y="72" font-family="'ArialMT'" font-size="24"> </tspan><tspan x="0" y="100.8" font-family="'ArialMT'" font-size="24">W</tspan><tspan x="22.219" y="100.8" font-family="'ArialMT'" font-size="24">ood grain to run parallel to</tspan><tspan x="0" y="129.6" font-family="'ArialMT'" font-size="24">the long side (as indicated)</tspan><tspan x="0" y="187.201" font-family="'ArialMT'" font-size="24">x 130 units required</tspan></text>
<path fill="none" stroke="#000000" stroke-width="0.9949" stroke-miterlimit="10" d="M512.037,282.742l-38.971-38.973
	l-48.389,32.676c12.506,11.607,29.234,18.721,47.6,18.721C487.037,295.166,500.734,290.568,512.037,282.742z"/>
<path fill="none" stroke="#000000" stroke-width="0.9949" stroke-miterlimit="10" d="M561.943,332.65
	c-12.857,12.236-21.078,29.285-21.74,48.234h69.975L561.943,332.65z"/>
<path fill="none" stroke="#000000" stroke-width="0.9949" stroke-miterlimit="10" d="M512.75,283.455
	c-11.492,8-25.439,12.705-40.473,12.705c-18.709,0-35.742-7.281-48.441-19.146l-88.072,59.475
	c13.784,10.117,22.931,26.17,23.677,44.396h179.766c0.662-19.225,8.996-36.521,22.033-48.938L512.75,283.455z"/>
<line fill="none" stroke="#000000" stroke-width="0.9949" stroke-miterlimit="10" x1="359.441" y1="380.885" x2="273.381" y2="380.885"/>
<line fill="none" stroke="#000000" stroke-width="0.9949" stroke-miterlimit="10" x1="335.764" y1="336.488" x2="273.381" y2="380.885"/>
<rect x="312.071" y="358.686" fill="none" width="36.31" height="18.453"/>
<text transform="matrix(1 0 0 1 312.0713 375.8682)" font-family="'ArialMT'" font-size="24">34°</text>
<rect x="550.053" y="356.768" fill="none" width="36.31" height="18.453"/>
<text transform="matrix(1 0 0 1 550.0527 373.9492)" font-family="'ArialMT'" font-size="24">45°</text>
<rect x="444.336" y="264.286" fill="none" width="53.535" height="18.453"/>
<text transform="matrix(1 0 0 1 444.3359 281.4692)" font-family="'ArialMT'" font-size="24">101°</text>
<g>
	<g>
		
			<line fill="none" stroke="#000000" stroke-width="0.9949" stroke-miterlimit="10" x1="280.52" y1="413.098" x2="603.039" y2="413.098"/>
		<g>
			<polygon points="281.971,418.057 273.381,413.098 281.971,408.137 			"/>
		</g>
		<g>
			<polygon points="601.587,418.057 610.178,413.098 601.587,408.137 			"/>
		</g>
	</g>
</g>
</svg>
